<svg data-v-fde0c5aa="" xmlns="http://www.w3.org/2000/svg" viewBox="0 0 300 300" class="iconLeft"><!----><defs data-v-fde0c5aa=""><!----></defs><rect data-v-fde0c5aa="" fill="transparent" x="0" y="0" width="300px" height="300px" class="logo-background-square"></rect><defs data-v-fde0c5aa=""><linearGradient data-v-fde0c5aa="" gradientTransform="rotate(25)" id="7a2ca694-4713-4295-849f-ca9b43e8eb7b" x1="0%" y1="0%" x2="100%" y2="0%"><stop data-v-fde0c5aa="" offset="0%" stop-color="#4E902F" stop-opacity="1"></stop><stop data-v-fde0c5aa="" offset="100%" stop-color="#7D7D7D" stop-opacity="1"></stop></linearGradient></defs><g data-v-fde0c5aa="" id="b548b1f7-e35a-45fd-abe0-ddc812f1c2d2" fill="url(#7a2ca694-4713-4295-849f-ca9b43e8eb7b)" transform="matrix(3.2915074825286865,0,0,3.2915074825286865,112.9621892527431,112.95125466349941)"><path d="M2.23 7.48L2.23 7.48L2.23 7.48Q1.63 7.48 1.32 7.18L1.32 7.18L1.32 7.18Q1.01 6.89 1.01 6.47L1.01 6.47L1.01 6.47Q1.01 6.05 1.35 5.77L1.35 5.77L1.35 5.77Q1.69 5.50 2.25 5.50L2.25 5.50L2.25 5.50Q2.81 5.50 3.14 5.78L3.14 5.78L3.14 5.78Q3.47 6.06 3.47 6.47L3.47 6.47L3.47 6.47Q3.47 6.89 3.14 7.18L3.14 7.18L3.14 7.18Q2.82 7.48 2.23 7.48ZM0.33 17.01L-0.12 16.13L0.21 15.89L0.21 15.89Q0.61 15.58 0.78 15.35L0.78 15.35L0.78 15.35Q0.96 15.12 1.10 14.88L1.10 14.88L1.10 14.88Q1.24 14.64 1.33 14.38L1.33 14.38L1.33 14.38Q1.52 13.79 1.52 13.06L1.52 13.06L1.52 9.83L0.51 9.26L0.68 8.36L2.88 8.21L3.17 8.48L3.17 13.37L3.17 13.37Q3.17 15.47 1.37 16.53L1.37 16.53L1.37 16.53Q1.05 16.71 0.66 16.89L0.66 16.89L0.33 17.01ZM6.17 14.64L6.17 14.64L6.17 14.64Q5.20 14.64 4.55 14.26L4.55 14.26L4.55 14.26Q3.91 13.89 3.91 13.41L3.91 13.41L3.91 13.41Q3.91 12.92 4.20 12.65L4.20 12.65L4.20 12.65Q4.50 12.39 5.02 12.35L5.02 12.35L5.02 12.35Q5.22 13.04 5.55 13.40L5.55 13.40L5.55 13.40Q5.89 13.75 6.29 13.75L6.29 13.75L6.29 13.75Q7.12 13.75 7.12 13.19L7.12 13.19L7.12 13.19Q7.12 12.78 6.34 12.41L6.34 12.41L6.34 12.41Q5.54 12.03 4.89 11.55L4.89 11.55L4.89 11.55Q4.55 11.31 4.33 10.93L4.33 10.93L4.33 10.93Q4.11 10.55 4.11 10.17L4.11 10.17L4.11 10.17Q4.11 9.78 4.24 9.45L4.24 9.45L4.24 9.45Q4.38 9.12 4.64 8.80L4.64 8.80L4.64 8.80Q4.91 8.48 5.39 8.28L5.39 8.28L5.39 8.28Q5.87 8.08 6.62 8.08L6.62 8.08L6.62 8.08Q7.37 8.08 7.91 8.38L7.91 8.38L7.91 8.38Q8.46 8.68 8.46 9.18L8.46 9.18L8.46 9.18Q8.46 9.67 8.13 9.96L8.13 9.96L8.13 9.96Q7.81 10.25 7.33 10.29L7.33 10.29L7.19 9.86L7.19 9.86Q6.94 8.87 6.16 8.87L6.16 8.87L6.16 8.87Q5.85 8.87 5.67 9.06L5.67 9.06L5.67 9.06Q5.49 9.24 5.49 9.50L5.49 9.50L5.49 9.50Q5.49 9.76 5.72 9.98L5.72 9.98L5.72 9.98Q5.95 10.21 6.30 10.38L6.30 10.38L6.30 10.38Q6.65 10.55 7.05 10.78L7.05 10.78L7.05 10.78Q7.46 11.01 7.81 11.25L7.81 11.25L7.81 11.25Q8.16 11.49 8.39 11.87L8.39 11.87L8.39 11.87Q8.62 12.26 8.62 12.71L8.62 12.71L8.62 12.71Q8.62 13.58 7.89 14.11L7.89 14.11L7.89 14.11Q7.15 14.64 6.17 14.64ZM11.87 9.13L11.87 9.13L11.87 9.13Q10.71 9.13 10.71 10.90L10.71 10.90L10.71 10.90Q10.71 12.56 11.34 13.22L11.34 13.22L11.34 13.22Q11.68 13.58 12.22 13.58L12.22 13.58L12.22 13.58Q12.76 13.58 13.04 13.15L13.04 13.15L13.04 13.15Q13.31 12.71 13.31 12.12L13.31 12.12L13.31 12.12Q13.31 11.53 13.27 11.16L13.27 11.16L13.27 11.16Q13.23 10.78 13.14 10.40L13.14 10.40L13.14 10.40Q13.04 10.02 12.88 9.75L12.88 9.75L12.88 9.75Q12.52 9.13 11.87 9.13ZM9.14 12.58L9.14 12.58L9.14 12.58Q8.96 12.02 8.96 11.31L8.96 11.31L8.96 11.31Q8.96 10.60 9.24 9.96L9.24 9.96L9.24 9.96Q9.52 9.32 9.98 8.91L9.98 8.91L9.98 8.91Q10.94 8.06 12.24 8.06L12.24 8.06L12.24 8.06Q13.54 8.06 14.31 8.88L14.31 8.88L14.31 8.88Q15.07 9.71 15.07 11.21L15.07 11.21L15.07 11.21Q15.07 12.72 14.21 13.65L14.21 13.65L14.21 13.65Q13.34 14.58 11.98 14.58L11.98 14.58L11.98 14.58Q9.75 14.58 9.14 12.58ZM18.98 14.40L15.44 14.40L15.54 13.61L16.54 13.22L16.54 9.75L15.52 9.29L15.65 8.46L18.05 8.22L18.24 8.42L18.10 9.21L18.19 9.23L18.19 9.23Q19.17 8.15 20.20 8.15L20.20 8.15L20.20 8.15Q20.99 8.15 21.43 8.64L21.43 8.64L21.43 8.64Q21.87 9.13 21.87 10.10L21.87 10.10L21.87 13.22L22.87 13.56L22.76 14.40L19.73 14.40L19.76 13.61L20.23 13.22L20.23 10.96L20.23 10.96Q20.23 9.73 19.31 9.73L19.31 9.73L19.31 9.73Q18.67 9.73 18.20 10.20L18.20 10.20L18.20 13.22L19.13 13.56L18.98 14.40ZM28.32 11.10L28.32 11.10L28.32 11.10Q28.32 12.11 28.65 12.64L28.65 12.64L28.65 12.64Q28.98 13.17 29.55 13.17L29.55 13.17L29.55 13.17Q30.12 13.17 30.65 12.73L30.65 12.73L30.65 10.04L30.65 10.04Q30.39 9.66 30.06 9.46L30.06 9.46L30.06 9.46Q29.74 9.26 29.41 9.26L29.41 9.26L29.41 9.26Q29.08 9.26 28.81 9.55L28.81 9.55L28.81 9.55Q28.32 10.08 28.32 11.10ZM28.79 14.53L28.79 14.53Q27.78 14.53 27.17 13.77L27.17 13.77L27.17 13.77Q26.56 13.02 26.56 11.93L26.56 11.93L26.56 11.93Q26.56 10.84 26.96 10.02L26.96 10.02L26.96 10.02Q27.36 9.21 28.09 8.71L28.09 8.71L28.09 8.71Q28.82 8.20 29.72 8.20L29.72 8.20L29.72 8.20Q29.97 8.20 30.26 8.27L30.26 8.27L30.26 8.27Q30.55 8.35 30.70 8.45L30.70 8.45L30.74 8.45L30.67 7.77L30.67 7.23L29.55 6.69L29.69 5.88L31.97 5.70L32.25 5.97L32.25 12.38L32.25 12.38Q32.25 12.88 32.42 13.05L32.42 13.05L32.42 13.05Q32.59 13.21 33.09 13.36L33.09 13.36L33.34 13.43L33.22 14.29L33.22 14.29Q31.73 14.83 31.10 14.30L31.10 14.30L31.10 14.30Q30.80 14.05 30.71 13.60L30.71 13.60L30.69 13.54L30.62 13.52L30.62 13.52Q30.28 13.99 29.86 14.26L29.86 14.26L29.86 14.26Q29.43 14.53 28.79 14.53L28.79 14.53ZM36.99 10.23L36.99 10.23L36.99 10.23Q36.99 9.12 36.23 9.12L36.23 9.12L36.23 9.12Q35.83 9.12 35.56 9.59L35.56 9.59L35.56 9.59Q35.29 10.07 35.27 10.88L35.27 10.88L36.95 10.72L36.95 10.72Q36.99 10.55 36.99 10.23ZM33.56 11.46L33.56 11.46L33.56 11.46Q33.56 10.72 33.83 10.07L33.83 10.07L33.83 10.07Q34.10 9.42 34.55 9.00L34.55 9.00L34.55 9.00Q35.49 8.08 36.65 8.08L36.65 8.08L36.65 8.08Q37.59 8.08 38.15 8.72L38.15 8.72L38.15 8.72Q38.71 9.35 38.71 10.43L38.71 10.43L38.71 10.43Q38.71 10.94 38.58 11.48L38.58 11.48L35.30 11.55L35.30 11.55Q35.34 12.33 35.82 12.85L35.82 12.85L35.82 12.85Q36.29 13.37 37.16 13.37L37.16 13.37L37.16 13.37Q38.04 13.37 38.73 12.99L38.73 12.99L38.87 13.62L38.87 13.62Q38.45 14.12 37.75 14.36L37.75 14.36L37.75 14.36Q37.05 14.60 36.31 14.60L36.31 14.60L36.31 14.60Q35.12 14.60 34.34 13.78L34.34 13.78L34.34 13.78Q33.56 12.96 33.56 11.46ZM43.47 14.40L39.14 14.40L39.22 13.60L40.26 13.21L40.26 9.32L39.25 9.32L39.31 8.57L40.26 8.41L40.26 8.41Q40.37 7.08 41.19 6.31L41.19 6.31L41.19 6.31Q42.01 5.54 43.07 5.54L43.07 5.54L43.07 5.54Q44.67 5.54 44.67 6.45L44.67 6.45L44.67 6.45Q44.67 6.79 44.37 7.08L44.37 7.08L44.37 7.08Q44.06 7.36 43.73 7.42L43.73 7.42L43.73 7.42Q43.54 7.12 43.42 6.95L43.42 6.95L43.42 6.95Q43.30 6.77 43.08 6.60L43.08 6.60L43.08 6.60Q42.86 6.43 42.57 6.43L42.57 6.43L42.57 6.43Q41.88 6.43 41.86 7.78L41.86 7.78L41.84 8.45L43.62 8.45L43.54 9.32L41.84 9.32L41.84 13.17L43.52 13.52L43.47 14.40Z"></path></g><defs data-v-fde0c5aa=""><linearGradient data-v-fde0c5aa="" gradientTransform="rotate(25)" id="901b3b69-21fb-40b5-bc03-6e063a855402" x1="0%" y1="0%" x2="100%" y2="0%"><stop data-v-fde0c5aa="" offset="0%" stop-color="#7D7D7D" stop-opacity="1"></stop><stop data-v-fde0c5aa="" offset="100%" stop-color="#4E902F" stop-opacity="1"></stop></linearGradient></defs><g data-v-fde0c5aa="" id="4bfdd3a0-d368-466e-8ee3-ea41ec878a50" stroke="url(#901b3b69-21fb-40b5-bc03-6e063a855402)" fill="none" transform="matrix(0.899709939956665,0,0,0.899709939956665,24.79630815609339,105.014504021728)"><g stroke-width="2" stroke-linecap="round" stroke-linejoin="round" stroke-miterlimit="10"><path d="M46.755 29.819c0 .87-.705 1.575-1.575 1.575H18.474c-.87 0-1.575-.705-1.575-1.575v-9.83c0-.87.705-1.576 1.575-1.576H45.18c.87 0 1.575.706 1.575 1.576v9.83zM46.755 80.011c0 .87-.705 1.576-1.575 1.576H18.474c-.87 0-1.575-.706-1.575-1.576V39.027c0-.87.705-1.575 1.575-1.575H45.18c.87 0 1.575.705 1.575 1.575v40.984zM83.101 29.819c0 .87-.705 1.575-1.575 1.575H54.82c-.87 0-1.575-.705-1.575-1.575v-9.83c0-.87.705-1.576 1.575-1.576h26.706c.87 0 1.575.706 1.575 1.576v9.83zM83.101 48.857c0 .87-.705 1.576-1.575 1.576H54.82c-.87 0-1.575-.706-1.575-1.576v-9.83c0-.87.705-1.575 1.575-1.575h26.706c.87 0 1.575.705 1.575 1.575v9.83zM83.101 80.011c0 .87-.705 1.576-1.575 1.576H54.82c-.87 0-1.575-.706-1.575-1.576v-21.08c0-.87.705-1.575 1.575-1.575h26.706c.87 0 1.575.705 1.575 1.575v21.08zM23.822 49.567h16.442M23.822 59.519h16.442M23.822 69.471h16.442"></path></g></g><!----></svg>